<svg xmlns="http://www.w3.org/2000/svg" width="121.958" height="74.754" viewBox="0 0 121.958 74.754">
  <g id="Group_2" data-name="Group 2" transform="translate(-22.191 -130.637)">
    <path id="Path_7" data-name="Path 7" d="M293.531,231.408a14.1,14.1,0,0,0-4.351-3.157,16.858,16.858,0,0,0-5.206-1.337.734.734,0,0,0-.151-.016H276.61a1.2,1.2,0,0,0-1.369,1.365v26.187a1.192,1.192,0,0,0,1.369,1.365h7.233a.465.465,0,0,0,.119-.016,17.767,17.767,0,0,0,5.179-1.361,14.436,14.436,0,0,0,4.371-3.1,14.054,14.054,0,0,0,2.977-4.574,14.365,14.365,0,0,0,1.011-5.382v-.04l.02-.02A14.088,14.088,0,0,0,293.531,231.408Zm-2.177,18.262a11.366,11.366,0,0,1-8.3,3.431h-.044l-.02-.02h-5.031V229.633h5.075a11.743,11.743,0,0,1,8.323,20.038Z" transform="translate(-153.37 -57.945)" fill="#212144"/>
    <path id="Path_6" data-name="Path 6" d="M231.173,227.873v26.283l-.032.064-.008.044c0,.919-.438,1.345-1.369,1.345-.947,0-1.389-.426-1.389-1.345v-21.9l-1.871,2.731-1.692,2.424-3.71,5.461,0,0a1.275,1.275,0,0,1-1.166.565,1.341,1.341,0,0,1-.605-.135,1.2,1.2,0,0,1-.49-.45l-.187-.271v.024l-5.644-8.112-1.568-2.281V254.2c0,.915-.434,1.345-1.365,1.345-.947,0-1.389-.43-1.389-1.345V227.893a1.258,1.258,0,0,1,.951-1.318.889.889,0,0,1,.458-.088,1.151,1.151,0,0,1,1.075.641l.187.31v-.064l4.259,6.078,2.078,3,2.285,3.252,6.48-9.41,2.018-2.9v.084l.187-.33a1.212,1.212,0,0,1,1.115-.661.971.971,0,0,1,.426.092l.529.267A1.247,1.247,0,0,1,231.173,227.873Z" transform="translate(-112.969 -57.698)" fill="#212144"/>
    <g id="Group_3" data-name="Group 3" transform="translate(46.461 130.637)">
      <g id="Group_1" data-name="Group 1" transform="translate(19.468)">
        <path id="Path_1" data-name="Path 1" d="M144.088,176.527c-.33-.043-.661-.076-.989-.129a11.655,11.655,0,0,1-9.008-6.546,11.16,11.16,0,0,1-1.195-5.468,9.864,9.864,0,0,1,.673-2.982,38.518,38.518,0,0,1,3.037-6.307c2.142-3.719,4.521-7.287,6.937-10.832a2.669,2.669,0,0,1,.621-.646.922.922,0,0,1,1.313.1,2.691,2.691,0,0,1,.4.461c2.393,3.546,4.787,7.092,6.928,10.8a43.23,43.23,0,0,1,3.1,6.387,10.392,10.392,0,0,1-.386,8.195,11.812,11.812,0,0,1-9.822,6.914c-.106.008-.21.034-.315.052Zm8.216-9.547c.023-.973-.672-1.518-1.432-1.282a1.145,1.145,0,0,0-.773,1.142,5.37,5.37,0,0,1-.573,2.059,5.8,5.8,0,0,1-2.228,2.348,1.108,1.108,0,1,0,1.184,1.87,9.334,9.334,0,0,0,1.058-.757A7.825,7.825,0,0,0,152.3,166.979Z" transform="translate(-132.89 -138.313)" fill="#212144"/>
        <path id="Path_2" data-name="Path 2" d="M170.222,153.218c-.225-.029-.45-.052-.674-.088a7.941,7.941,0,0,1-6.138-4.461,7.6,7.6,0,0,1-.814-3.726,6.713,6.713,0,0,1,.458-2.032,26.277,26.277,0,0,1,2.069-4.3c1.46-2.534,3.081-4.966,4.727-7.381a1.817,1.817,0,0,1,.423-.441.629.629,0,0,1,.895.07,1.836,1.836,0,0,1,.275.314c1.63,2.417,3.262,4.833,4.721,7.359a29.436,29.436,0,0,1,2.11,4.352,7.081,7.081,0,0,1-.263,5.585,8.048,8.048,0,0,1-6.693,4.711c-.072.006-.143.023-.215.036Z" transform="translate(-150.769 -130.637)" fill="#d3483d"/>
      </g>
      <path id="Path_4" data-name="Path 4" d="M103.656,253.895a11.062,11.062,0,0,0-5.533-5.533,9.737,9.737,0,0,0-3.829-.784v.02a9.934,9.934,0,0,0-3.937.788,10.773,10.773,0,0,0-3.332,2.241,10.316,10.316,0,0,0-2.261,3.268,9.841,9.841,0,0,0-.784,3.933v16.527a1.444,1.444,0,0,0,.1.537,1.493,1.493,0,0,0,.287.458,1.3,1.3,0,0,0,1.027.434,1.273,1.273,0,0,0,1.023-.414,1.413,1.413,0,0,0,.382-1.015v-9.481l.175.183a8.417,8.417,0,0,0,.9.844,11.446,11.446,0,0,0,1.011.709,10.252,10.252,0,0,0,14.771-12.714Zm-4.116,9.2a7.174,7.174,0,0,1-5.187,2.165l-.02.044h-.06a7.446,7.446,0,0,1,0-14.891,7.043,7.043,0,0,1,5.266,2.189,7.428,7.428,0,0,1,0,10.493Z" transform="translate(-83.981 -201.03)" fill="#212144"/>
      <path id="Path_5" data-name="Path 5" d="M165.55,253.895a11.062,11.062,0,0,0-5.533-5.533,9.737,9.737,0,0,0-3.829-.784l0,.02a9.915,9.915,0,0,0-3.933.788,10.726,10.726,0,0,0-3.332,2.241,10.231,10.231,0,0,0-2.261,3.268,9.843,9.843,0,0,0-.788,3.933v16.527a1.425,1.425,0,0,0,.382,1,1.3,1.3,0,0,0,1.027.434,1.287,1.287,0,0,0,1.027-.414,1.419,1.419,0,0,0,.382-1.015v-9.481l.171.183a8.066,8.066,0,0,0,.908.844,11.112,11.112,0,0,0,1.011.709,10.256,10.256,0,0,0,14.771-12.714Zm-4.12,9.2a7.172,7.172,0,0,1-5.183,2.165l-.02.044h-.064a7.446,7.446,0,0,1,0-14.891,7.031,7.031,0,0,1,5.266,2.189,7.428,7.428,0,0,1,0,10.493Z" transform="translate(-121.236 -201.03)" fill="#212144"/>
    </g>
    <path id="Path_3" data-name="Path 3" d="M39.789,250.807a9.87,9.87,0,0,0-7.308-3.029,9.781,9.781,0,0,0-7.284,3.029,10.293,10.293,0,0,0,7.284,17.558,9.742,9.742,0,0,0,2.806-.382,10.421,10.421,0,0,0,2.544-1.15c.334-.215.649-.442.967-.689s.641-.521.971-.828l.167-.155v1.8a1.314,1.314,0,0,0,1.429,1.409,1.393,1.393,0,0,0,1.389-1.409v-.239l.04.04v-8.685A10,10,0,0,0,39.789,250.807Zm-2,12.55a7.505,7.505,0,0,1-10.6,0,7.2,7.2,0,0,1-2.189-5.286,7.318,7.318,0,0,1,2.189-5.306A7.161,7.161,0,0,1,32.48,250.6a7.246,7.246,0,0,1,5.31,2.169,7.41,7.41,0,0,1,2.189,5.326A7.21,7.21,0,0,1,37.79,263.358Z" transform="translate(0 -70.514)" fill="#212144"/>
  </g>
</svg>
