<svg xmlns="http://www.w3.org/2000/svg" width="27.824" height="20.884" viewBox="0 0 27.824 20.884">
  <g id="Group_649" data-name="Group 649" transform="translate(-1221.156 -2507.961)">
    <path id="Path_1459" data-name="Path 1459" d="M1248.98,2588.3v12.973c-.015.042-.031.085-.046.127a2.6,2.6,0,0,1-2.7,1.953q-11.194,0-22.388,0a2.659,2.659,0,0,1-2.692-2.689c.033-3.989.012-7.978.012-11.968,0-.072,0-.145,0-.217,0-.129.057-.165.169-.093l.182.119,11.04,7.36a4.164,4.164,0,0,0,5.038.008q3.172-2.114,6.344-4.229Q1246.46,2589.978,1248.98,2588.3Z" transform="translate(0 -74.517)" fill="#d3483d"/>
    <path id="Path_1460" data-name="Path 1460" d="M1249.021,2511.019a2.876,2.876,0,0,1-1.327,1.773q-5.463,3.617-10.907,7.263a2.628,2.628,0,0,1-3.319,0q-5.553-3.7-11.106-7.406a2.528,2.528,0,0,1-.078-4.2,2.587,2.587,0,0,1,1.552-.488h22.223a2.659,2.659,0,0,1,2.961,2.081Z" transform="translate(-0.041)" fill="#d3483d"/>
  </g>
</svg>
