<svg xmlns="http://www.w3.org/2000/svg" width="24.838" height="28.071" viewBox="0 0 24.838 28.071">
  <g id="Group_778" data-name="Group 778" transform="translate(-90.104 -426.421)">
    <path id="Path_1457" data-name="Path 1457" d="M91.393,662.494a.948.948,0,0,1-.575-.97,10.712,10.712,0,0,1,3.663-8.022,10.457,10.457,0,0,1,5.7-2.643,5.487,5.487,0,0,1,.739-.069c1.541-.006,3.085-.054,4.624.01a9.934,9.934,0,0,1,5.476,1.927,10.853,10.853,0,0,1,4.552,7.533,11.427,11.427,0,0,1,.079,1.235.953.953,0,0,1-.577,1Z" transform="translate(-0.715 -208.003)" fill="#d3483d"/>
    <path id="Path_1458" data-name="Path 1458" d="M165.308,426.422a7.244,7.244,0,1,1-7.243,7.17A7.261,7.261,0,0,1,165.308,426.422Z" transform="translate(-62.786 0)" fill="#d3483d"/>
  </g>
</svg>
