<svg xmlns="http://www.w3.org/2000/svg" xmlns:xlink="http://www.w3.org/1999/xlink" width="39" height="39" viewBox="0 0 39 39">
  <defs>
    <filter id="Ellipse_7" x="0" y="0" width="39" height="39" filterUnits="userSpaceOnUse">
      <feOffset input="SourceAlpha"/>
      <feGaussianBlur stdDeviation="1.5" result="blur"/>
      <feFlood flood-opacity="0.302"/>
      <feComposite operator="in" in2="blur"/>
      <feComposite in="SourceGraphic"/>
    </filter>
  </defs>
  <g id="Group_196" data-name="Group 196" transform="translate(-216.5 -639.5)">
    <g transform="matrix(1, 0, 0, 1, 216.5, 639.5)" filter="url(#Ellipse_7)">
      <circle id="Ellipse_7-2" data-name="Ellipse 7" cx="15" cy="15" r="15" transform="translate(4.5 4.5)" fill="#c8301b"/>
    </g>
    <g id="google-plus" transform="translate(228 654)">
      <path id="Path_21" data-name="Path 21" d="M5.308,88.358H7.672a3,3,0,1,1-.816-3.222.326.326,0,0,0,.443,0l.868-.817a.325.325,0,0,0,0-.472A4.822,4.822,0,0,0,4.937,82.52a4.84,4.84,0,1,0,4.736,5.111c0-.032.006-1.111.006-1.111H5.308a.324.324,0,0,0-.324.324v1.188A.324.324,0,0,0,5.308,88.358Z" transform="translate(0 -82.519)" fill="#fff"/>
      <path id="Path_22" data-name="Path 22" d="M326.851,164.653v-1.161a.284.284,0,0,0-.284-.284h-.977a.284.284,0,0,0-.284.284v1.161h-1.161a.284.284,0,0,0-.284.284v.977a.284.284,0,0,0,.284.284h1.161v1.161a.284.284,0,0,0,.284.284h.977a.284.284,0,0,0,.284-.284V166.2h1.161a.284.284,0,0,0,.284-.284v-.977a.284.284,0,0,0-.284-.284Z" transform="translate(-313.168 -160.544)" fill="#fff"/>
    </g>
  </g>
</svg>
