<svg xmlns="http://www.w3.org/2000/svg" xmlns:xlink="http://www.w3.org/1999/xlink" width="476.231" height="585.738" viewBox="0 0 476.231 585.738">
  <defs>
    <linearGradient id="linear-gradient" y1="0.5" x2="1" y2="0.5" gradientUnits="objectBoundingBox">
      <stop offset="0" stop-color="#2f2fc5"/>
      <stop offset="1" stop-color="#cc3f34"/>
    </linearGradient>
    <linearGradient id="linear-gradient-2" y1="0.5" x2="1" y2="0.5" gradientUnits="objectBoundingBox">
      <stop offset="0" stop-color="#3d3dd3"/>
      <stop offset="1" stop-color="#d3483d"/>
    </linearGradient>
    <linearGradient id="linear-gradient-4" y1="0.5" x2="1" y2="0.5" gradientUnits="objectBoundingBox">
      <stop offset="0" stop-color="#ae53fc"/>
      <stop offset="1" stop-color="#3b48ed"/>
    </linearGradient>
  </defs>
  <g id="Group_479" data-name="Group 479" transform="translate(-295.745 -438.518)">
    <g id="Group_447" data-name="Group 447" transform="translate(607.39 516.821)">
      <path id="Path_685" data-name="Path 685" d="M1109.181,839.14c-15.333-20.306-15.038-50.958.682-70.966,10.673-13.585,27.185-22.19,35.921-37.093,8.963-15.29,8.113-34.387,14.392-50.961,9.255-24.428,35.308-41.395,61.393-39.981-15.516,10.251-19.085,33.548-14.907,51.669s12.706,35.642,12.028,54.226c-.656,17.979-10.074,34.742-22.51,47.744s-27.789,22.773-42.98,32.412c-7.014,4.451-14.18,8.968-22.232,11.01S1114.187,845.77,1109.181,839.14Z" transform="translate(-1097.874 -640.057)" fill="#c7dafb" opacity="0.47"/>
      <path id="Path_686" data-name="Path 686" d="M1182.875,923.266a310.31,310.31,0,0,0,28.469-46.62,1.63,1.63,0,0,0,.261-.528q3.844-7.789,7.251-15.774a102.117,102.117,0,0,0,31.167-22.231,1.671,1.671,0,0,0-.057-2.329,1.647,1.647,0,0,0-2.329.057,98.889,98.889,0,0,1-26.881,19.934,310.739,310.739,0,0,0,11.026-31.979,1.646,1.646,0,0,0,.2-.155,200.43,200.43,0,0,0,23.294-25.536,1.647,1.647,0,0,0-2.617-2,197.2,197.2,0,0,1-19.215,21.608,310.268,310.268,0,0,0,8.726-48.434,1.647,1.647,0,1,0-3.278-.324q-1.5,15.159-4.488,30.037l-9.969-25.024a1.647,1.647,0,1,0-3.06,1.219l11.613,29.148a1.642,1.642,0,0,0,.22.378,307.4,307.4,0,0,1-8.846,31.865,224.574,224.574,0,0,1-19.805-30.287,1.647,1.647,0,1,0-2.895,1.574,227.9,227.9,0,0,0,21.423,32.446q-3.166,9.033-6.888,17.857a1.644,1.644,0,0,0-.316.749q-2.927,6.884-6.188,13.623a152.835,152.835,0,0,1-16.8-27.656,1.647,1.647,0,1,0-2.982,1.4,156.152,156.152,0,0,0,18.158,29.547,307.073,307.073,0,0,1-27.845,45.476,1.648,1.648,0,0,0,.156,2.141,1.564,1.564,0,0,0,.19.163A1.646,1.646,0,0,0,1182.875,923.266Z" transform="translate(-1148.033 -717.967)" opacity="0.1"/>
      <path id="Path_687" data-name="Path 687" d="M1249.964,901.747a61.233,61.233,0,0,0-.161-7.04,109.065,109.065,0,0,0-62.977,26.592c-23.229,20.306-37.17,46.049-37.806,76.127,4.12-.892,8.774-3.386,13.222-4.513,8.052-2.041,15.218-6.559,22.232-11.01,15.19-9.639,30.545-19.411,42.98-32.412S1249.307,919.726,1249.964,901.747Z" transform="translate(-1129.149 -795.77)" opacity="0.1"/>
      <g id="Group_446" data-name="Group 446" transform="translate(6.853 111.43)">
        <path id="Path_688" data-name="Path 688" d="M1152.931,1026.273a140.673,140.673,0,0,0,140.4-94.793,108.988,108.988,0,0,0-94.164,15.289C1171.8,966.05,1154.634,992.838,1152.931,1026.273Z" transform="translate(-1138.393 -926.862)" fill="#c7daf2"/>
        <path id="Path_689" data-name="Path 689" d="M1115.876,1045.293a322.568,322.568,0,0,1,38.815-41.44,1.686,1.686,0,0,1,.456-.408q6.738-6.009,13.793-11.636a106.149,106.149,0,0,1,13.633-37.384,1.737,1.737,0,0,1,2.349-.588,1.712,1.712,0,0,1,.588,2.349,102.792,102.792,0,0,0-12.521,32.454,323.016,323.016,0,0,1,28.981-19.909,1.727,1.727,0,0,1,.1-.248,208.32,208.32,0,0,1,19.126-30.413,1.712,1.712,0,1,1,2.73,2.067,204.96,204.96,0,0,0-16.322,25.238,322.56,322.56,0,0,1,46.1-22.165,1.712,1.712,0,0,1,1.234,3.195q-14.772,5.7-28.848,12.82l27.832,3.052a1.712,1.712,0,1,1-.374,3.4l-32.419-3.556a1.68,1.68,0,0,1-.439-.116,319.412,319.412,0,0,0-29.47,17.694,233.429,233.429,0,0,0,35.831,11.447,1.712,1.712,0,0,1-.774,3.336,236.821,236.821,0,0,1-38.442-12.469q-8.172,5.676-15.98,11.85a1.712,1.712,0,0,1-.662.523q-6.086,4.84-11.933,9.974a158.851,158.851,0,0,0,32.363,9.169,1.712,1.712,0,1,1-.577,3.375,162.279,162.279,0,0,1-34.633-10,319.186,319.186,0,0,0-37.841,40.5,1.712,1.712,0,0,1-2.187.437,1.646,1.646,0,0,1-.216-.145A1.712,1.712,0,0,1,1115.876,1045.293Z" transform="translate(-1115.512 -933.3)" opacity="0.1"/>
      </g>
    </g>
    <g id="Group_449" data-name="Group 449" transform="translate(295.745 638.704)">
      <path id="Path_690" data-name="Path 690" d="M512.794,1159.092c15.813-20.942,15.51-52.556-.7-73.191-11.008-14.01-28.037-22.885-37.048-38.257-9.244-15.77-8.367-35.465-14.843-52.559-9.545-25.194-36.415-42.693-63.318-41.235,16,10.573,19.684,34.6,15.374,53.289s-13.1,36.76-12.4,55.927c.677,18.543,10.39,35.832,23.215,49.241s28.661,23.487,44.328,33.428c7.234,4.591,14.625,9.25,22.929,11.355S507.631,1165.929,512.794,1159.092Z" transform="translate(-357.588 -953.766)" fill="#c7dafb" opacity="0.47"/>
      <path id="Path_691" data-name="Path 691" d="M514.664,1245.856a320.082,320.082,0,0,1-29.361-48.082,1.688,1.688,0,0,1-.27-.544q-3.964-8.033-7.479-16.269a105.325,105.325,0,0,1-32.145-22.928,1.723,1.723,0,0,1,.059-2.4,1.7,1.7,0,0,1,2.4.06,102,102,0,0,0,27.724,20.559,320.348,320.348,0,0,1-11.372-32.982,1.663,1.663,0,0,1-.211-.159,206.715,206.715,0,0,1-24.025-26.336,1.7,1.7,0,0,1,2.7-2.064,203.334,203.334,0,0,0,19.817,22.286,320.072,320.072,0,0,1-9-49.953,1.7,1.7,0,0,1,3.382-.335q1.547,15.635,4.628,30.979l10.282-25.808a1.7,1.7,0,0,1,3.157,1.258L462.976,1123.2a1.673,1.673,0,0,1-.227.389,317.056,317.056,0,0,0,9.124,32.864,231.654,231.654,0,0,0,20.426-31.237,1.7,1.7,0,0,1,2.986,1.623A235.034,235.034,0,0,1,473.19,1160.3q3.265,9.316,7.1,18.417a1.7,1.7,0,0,1,.326.772q3.019,7.1,6.381,14.051a157.619,157.619,0,0,0,17.33-28.523,1.7,1.7,0,1,1,3.076,1.445,160.987,160.987,0,0,1-18.728,30.473,316.732,316.732,0,0,0,28.718,46.9,1.7,1.7,0,0,1-.161,2.208,1.644,1.644,0,0,1-.2.169A1.7,1.7,0,0,1,514.664,1245.856Z" transform="translate(-383.732 -1034.119)" opacity="0.1"/>
      <path id="Path_692" data-name="Path 692" d="M404.464,1223.662a63.1,63.1,0,0,1,.166-7.26,112.481,112.481,0,0,1,64.952,27.425c23.957,20.943,38.336,47.493,38.991,78.514-4.249-.92-9.049-3.492-13.637-4.655-8.3-2.105-15.7-6.765-22.929-11.355-15.667-9.941-31.5-20.019-44.328-33.428S405.141,1242.2,404.464,1223.662Z" transform="translate(-362.2 -1114.362)" opacity="0.1"/>
      <g id="Group_448" data-name="Group 448" transform="translate(0 114.925)">
        <path id="Path_693" data-name="Path 693" d="M440.55,1352.093a145.083,145.083,0,0,1-144.805-97.765,112.4,112.4,0,0,1,97.117,15.768C421.09,1289.981,438.794,1317.609,440.55,1352.093Z" transform="translate(-295.745 -1249.565)" fill="#c7daf2"/>
        <path id="Path_694" data-name="Path 694" d="M478.57,1371.709a332.713,332.713,0,0,0-40.032-42.74,1.752,1.752,0,0,0-.47-.421q-6.949-6.2-14.225-12a109.472,109.472,0,0,0-14.061-38.557,1.791,1.791,0,0,0-2.423-.607,1.766,1.766,0,0,0-.606,2.423,106.01,106.01,0,0,1,12.914,33.472,333.037,333.037,0,0,0-29.89-20.533,1.777,1.777,0,0,0-.1-.256,214.867,214.867,0,0,0-19.726-31.367,1.766,1.766,0,0,0-2.816,2.132,211.4,211.4,0,0,1,16.834,26.029,332.686,332.686,0,0,0-47.549-22.86,1.766,1.766,0,0,0-1.272,3.3q15.235,5.883,29.752,13.222l-28.7,3.148a1.766,1.766,0,1,0,.385,3.511l33.435-3.667a1.734,1.734,0,0,0,.453-.119,329.42,329.42,0,0,1,30.394,18.248,240.737,240.737,0,0,1-36.954,11.806,1.766,1.766,0,0,0,.8,3.441,244.308,244.308,0,0,0,39.647-12.86q8.428,5.853,16.482,12.221a1.765,1.765,0,0,0,.683.54q6.276,4.992,12.308,10.287a163.875,163.875,0,0,1-33.378,9.456,1.766,1.766,0,1,0,.6,3.482,167.384,167.384,0,0,0,35.718-10.316,329.174,329.174,0,0,1,39.028,41.768,1.766,1.766,0,1,0,2.781-2.178Z" transform="translate(-319.146 -1256.204)" opacity="0.1"/>
      </g>
    </g>
    <g id="Group_451" data-name="Group 451" transform="translate(376.208 462.021)">
      <path id="Path_695" data-name="Path 695" d="M783.284,501.32,519.777,653.456c-9.313,5.377-16.932,18.517-16.932,29.2l1.268,287.464c0,10.686,7.619,15.029,16.932,9.652L784.552,827.639c9.313-5.377,16.931-18.516,16.931-29.2l-1.268-287.464C800.215,500.286,792.6,495.943,783.284,501.32Z" transform="translate(-502.845 -499.012)" fill="#c7daf2" fill-rule="evenodd"/>
      <path id="Path_696" data-name="Path 696" d="M785.818,507.613,528.636,656.1c-9.09,5.249-16.525,18.072-16.525,28.5L512.54,969c0,10.429,7.435,14.669,16.525,9.421L786.247,829.938c9.092-5.249,16.525-18.074,16.525-28.5l-.429-284.4C802.343,506.6,794.91,502.364,785.818,507.613Z" transform="translate(-508.511 -502.894)" fill="#fff" fill-rule="evenodd"/>
      <path id="Path_697" data-name="Path 697" d="M785.819,507.612,528.636,656.1c-9.09,5.249-16.525,18.072-16.525,28.5v47.647L802.343,564.679V517.032C802.343,506.6,794.91,502.364,785.819,507.612Z" transform="translate(-508.511 -502.893)" fill="#073669" fill-rule="evenodd"/>
      <g id="Group_450" data-name="Group 450" transform="translate(22.871 153.282)">
        <path id="Path_698" data-name="Path 698" d="M670.5,905.787a11.128,11.128,0,0,0,5.04-8.69c0-3.184-2.264-4.475-5.04-2.872a11.131,11.131,0,0,0-5.039,8.691C665.465,906.1,667.729,907.39,670.5,905.787Z" transform="translate(-625.154 -893.536)" fill="#f0f4ff" fill-rule="evenodd"/>
        <path id="Path_699" data-name="Path 699" d="M618.628,935.739a11.128,11.128,0,0,0,5.039-8.689c0-3.184-2.264-4.475-5.039-2.873a11.13,11.13,0,0,0-5.039,8.691C613.589,936.052,615.853,937.342,618.628,935.739Z" transform="translate(-593.433 -911.852)" fill="#f0f4ff" fill-rule="evenodd"/>
        <path id="Path_700" data-name="Path 700" d="M566.751,965.689A11.131,11.131,0,0,0,571.79,957c0-3.184-2.265-4.474-5.039-2.873a11.132,11.132,0,0,0-5.04,8.692C561.711,966,563.975,967.292,566.751,965.689Z" transform="translate(-561.711 -930.165)" fill="#f0f4ff" fill-rule="evenodd"/>
      </g>
    </g>
    <g id="Group_455" data-name="Group 455" transform="translate(431.658 683.021)">
      <g id="Group_452" data-name="Group 452" transform="translate(0 30.913)">
        <path id="Path_701" data-name="Path 701" d="M645.565,1257.827l18.173,11.152,42.476-45.5,16.942-61.45a6.159,6.159,0,0,0-2.716-6.887l-11.151-6.844a6.118,6.118,0,0,0-6.214-.109L650.7,1177.851a10.125,10.125,0,0,0-5.136,8.811Z" transform="translate(-645.565 -1147.399)" fill="#d2e6f9"/>
      </g>
      <g id="Group_453" data-name="Group 453" transform="translate(18.173 43.213)">
        <path id="Path_702" data-name="Path 702" d="M692.339,1288.337l60.649-34.344v-71.948a2.984,2.984,0,0,0-4.454-2.6l-51.059,28.913a10.126,10.126,0,0,0-5.136,8.811Z" transform="translate(-692.339 -1179.057)" fill="url(#linear-gradient)"/>
        <path id="Path_703" data-name="Path 703" d="M751.618,1286.669c0-5.343,3.409-11.6,7.613-13.986s7.614.02,7.614,5.363a18.247,18.247,0,0,1-4.211,11l2.443,12.266-11.691,6.62,2.443-15.033C753.341,1292.712,751.618,1290.449,751.618,1286.669Z" transform="translate(-728.587 -1235.744)" fill="#fff"/>
      </g>
      <g id="Group_454" data-name="Group 454" transform="translate(19.223 0)">
        <path id="Path_704" data-name="Path 704" d="M698.943,1131.742a3.9,3.9,0,0,0,3.9-3.9v-26.358c0-9.335,6.282-20.58,13.72-24.551,2.7-1.442,5.109-1.675,6.806-.658,2.056,1.235,3.238,4.277,3.238,8.35v26.358a3.9,3.9,0,1,0,7.8,0v-26.358c0-6.881-2.561-12.364-7.026-15.041-4.135-2.486-9.287-2.317-14.5.464-10.009,5.346-17.846,19.154-17.846,31.435v26.358A3.9,3.9,0,0,0,698.943,1131.742Z" transform="translate(-695.042 -1067.833)" fill="url(#linear-gradient-2)"/>
      </g>
    </g>
    <path id="Path_705" data-name="Path 705" d="M1011.311,981.777c3.7-4.909,6.154-10.733,6.154-15.5,0-7.567-6.155-9.653-13.722-4.65s-13.722,15.228-13.722,22.795c0,4.77,2.45,7.356,6.154,7.367-8.382,8.635-14.387,20.651-14.387,30.094l3.659-2.419c0-10.089,8.208-23.722,18.3-30.393s18.3-3.889,18.3,6.2l3.659-2.42C1025.7,983.405,1019.694,979.329,1011.311,981.777Zm-7.568,3.631c-5.549,3.668-10.063,2.139-10.063-3.41s4.514-13.047,10.063-16.716,10.063-2.139,10.063,3.41S1009.292,981.74,1003.743,985.409Z" transform="translate(-419.499 -318.202)" fill="#11345e"/>
    <g id="Group_456" data-name="Group 456" transform="translate(527.457 657.716)">
      <path id="Path_706" data-name="Path 706" d="M1019.809,1020.64l-127.673,73.712v-17.939l127.673-73.712Z" transform="translate(-892.137 -1002.701)" fill="#d2e6f9"/>
    </g>
    <g id="Group_459" data-name="Group 459" transform="translate(527.457 686.86)">
      <path id="Path_707" data-name="Path 707" d="M1019.809,1095.653l-127.673,73.712v-17.939l127.673-73.712Z" transform="translate(-892.137 -1077.714)" fill="#d2e6f9"/>
      <g id="Group_458" data-name="Group 458" transform="translate(40.354 19.629)">
        <g id="Group_457" data-name="Group 457">
          <circle id="Ellipse_52" data-name="Ellipse 52" cx="3.833" cy="3.833" r="3.833" transform="translate(0 33.748)" fill="#11345e"/>
          <circle id="Ellipse_53" data-name="Ellipse 53" cx="3.833" cy="3.833" r="3.833" transform="translate(14.366 25.311)" fill="#11345e"/>
          <path id="Path_708" data-name="Path 708" d="M1083.731,1175.637c-.076,2.116,2.033,3.77-.083,3.694a3.833,3.833,0,0,1,.274-7.662C1086.038,1171.745,1083.807,1173.521,1083.731,1175.637Z" transform="translate(-1047.336 -1154.793)" fill="#11345e"/>
          <circle id="Ellipse_54" data-name="Ellipse 54" cx="3.833" cy="3.833" r="3.833" transform="translate(43.097 8.437)" fill="#11345e"/>
          <circle id="Ellipse_55" data-name="Ellipse 55" cx="3.833" cy="3.833" r="3.833" transform="translate(57.463)" fill="#11345e"/>
        </g>
      </g>
    </g>
    <g id="Group_461" data-name="Group 461" transform="translate(548.909 737.325)">
      <path id="Path_709" data-name="Path 709" d="M1039.378,1229.873l-87.962,50.785a2.71,2.71,0,0,1-4.065-2.347V1261.1a2.71,2.71,0,0,1,1.355-2.347l87.962-50.785a2.71,2.71,0,0,1,4.066,2.348v17.208A2.71,2.71,0,0,1,1039.378,1229.873Z" transform="translate(-947.351 -1207.602)" fill="#d3483d"/>
      <g id="Group_460" data-name="Group 460" transform="translate(27.719 19.607)">
        <path id="Path_710" data-name="Path 710" d="M1018.7,1325.815v-10.431l2.456-1.418v8.155l3.5-2.021v2.276Z" transform="translate(-1018.695 -1292.249)" fill="#fff"/>
        <path id="Path_711" data-name="Path 711" d="M1045.747,1301.658a9.4,9.4,0,0,1-1.125,4.652,8.583,8.583,0,0,1-3.3,3.272q-2.139,1.235-3.28.517t-1.141-3.351a9.327,9.327,0,0,1,1.135-4.633,8.615,8.615,0,0,1,3.3-3.278q2.17-1.253,3.289-.536T1045.747,1301.658Zm-6.255,3.611q0,3.025,1.834,1.966a3.3,3.3,0,0,0,1.383-1.534,6.208,6.208,0,0,0,.451-2.551,3.141,3.141,0,0,0-.457-2.044q-.457-.482-1.364.042Q1039.493,1302.216,1039.492,1305.27Z" transform="translate(-1029.831 -1282.511)" fill="#fff"/>
        <path id="Path_712" data-name="Path 712" d="M1067.009,1287.827l3.923-2.265v5.622a17.816,17.816,0,0,1-3.513,2.656q-2.1,1.213-3.248.478t-1.147-3.327a9.008,9.008,0,0,1,1.256-4.656,9.52,9.52,0,0,1,3.519-3.437,8.951,8.951,0,0,1,1.62-.75,5.576,5.576,0,0,1,1.327-.295l-.777,2.66a4.486,4.486,0,0,0-2.157.689,4.21,4.21,0,0,0-1.663,1.763,5.675,5.675,0,0,0-.587,2.633,2.548,2.548,0,0,0,.531,1.922q.532.46,1.533-.117a7,7,0,0,0,1.007-.7v-1.634l-1.622.936Z" transform="translate(-1045.801 -1272.612)" fill="#fff"/>
        <path id="Path_713" data-name="Path 713" d="M1088.147,1285.706v-10.43l2.468-1.425v10.43Z" transform="translate(-1061.163 -1267.719)" fill="#fff"/>
        <path id="Path_714" data-name="Path 714" d="M1108.212,1268.5l-3.221,1.859-3.32-5.432-.056.033q.118,1.665.118,2.578v4.7l-2.176,1.256v-10.43l3.208-1.853,3.308,5.339.037-.021q-.087-1.527-.087-2.483v-4.716l2.189-1.264Z" transform="translate(-1068.14 -1258.069)" fill="#fff"/>
      </g>
    </g>
    <g id="Group_467" data-name="Group 467" transform="translate(646.99 478.771)">
      <g id="Group_462" data-name="Group 462" transform="translate(0)">
        <path id="Path_715" data-name="Path 715" d="M1317.667,543.093l-110.753,63.943a15.739,15.739,0,0,0-7.117,12.275v91.433c0,4.491,3.2,6.317,7.117,4.057l110.753-63.943a15.739,15.739,0,0,0,7.116-12.275V547.15C1324.783,542.659,1321.581,540.833,1317.667,543.093Z" transform="translate(-1199.797 -542.123)" fill="#d1d4eb" fill-rule="evenodd"/>
        <path id="Path_716" data-name="Path 716" d="M1320.786,552.078l-105.84,61.106a15.041,15.041,0,0,0-6.8,11.73v87.376c0,4.292,3.06,6.037,6.8,3.877l105.84-61.107a15.041,15.041,0,0,0,6.8-11.73V555.956C1327.587,551.663,1324.526,549.919,1320.786,552.078Z" transform="translate(-1204.902 -547.644)" fill-rule="evenodd" fill="url(#linear-gradient)"/>
      </g>
      <path id="Path_717" data-name="Path 717" d="M1339.012,689.077c2.163-2.867,3.594-6.268,3.594-9.054,0-4.419-3.595-5.637-8.013-2.715s-8.014,8.892-8.014,13.311c0,2.786,1.431,4.3,3.594,4.3-4.9,5.043-8.4,12.06-8.4,17.574l2.137-1.413c0-5.892,4.793-13.853,10.685-17.748s10.684-2.271,10.684,3.621l2.137-1.413C1347.414,690.027,1343.907,687.647,1339.012,689.077Zm-4.42,2.12c-3.24,2.142-5.877,1.249-5.877-1.991s2.636-7.619,5.877-9.762,5.876-1.249,5.876,1.992S1337.833,689.055,1334.593,691.2Z" transform="translate(-1274.381 -623.813)" fill="#fff"/>
      <g id="Group_463" data-name="Group 463" transform="translate(15.19 57.632)">
        <path id="Path_718" data-name="Path 718" d="M1335.052,703.97l-96.157,55.516V745.975l96.157-55.516Z" transform="translate(-1238.894 -690.459)" fill="#fff"/>
      </g>
      <g id="Group_466" data-name="Group 466" transform="translate(15.19 78.805)">
        <path id="Path_719" data-name="Path 719" d="M1335.052,758.466l-96.157,55.517V800.472l96.157-55.516Z" transform="translate(-1238.894 -744.955)" fill="#fff"/>
        <g id="Group_465" data-name="Group 465" transform="translate(30.393 14.783)">
          <g id="Group_464" data-name="Group 464">
            <circle id="Ellipse_56" data-name="Ellipse 56" cx="2.887" cy="2.887" r="2.887" transform="translate(0 25.418)" fill="#11345e"/>
            <circle id="Ellipse_57" data-name="Ellipse 57" cx="2.887" cy="2.887" r="2.887" transform="translate(10.82 19.063)" fill="#11345e"/>
            <circle id="Ellipse_58" data-name="Ellipse 58" cx="2.887" cy="2.887" r="2.887" transform="translate(21.639 12.709)" fill="#11345e"/>
            <circle id="Ellipse_59" data-name="Ellipse 59" cx="2.887" cy="2.887" r="2.887" transform="translate(32.459 6.354)" fill="#11345e"/>
            <circle id="Ellipse_60" data-name="Ellipse 60" cx="2.887" cy="2.887" r="2.887" transform="translate(43.278)" fill="#11345e"/>
          </g>
        </g>
      </g>
    </g>
    <ellipse id="Ellipse_61" data-name="Ellipse 61" cx="32.69" cy="16.673" rx="32.69" ry="16.673" transform="translate(380.84 992.414) rotate(-17.277)" fill="#c8e6eb"/>
    <ellipse id="Ellipse_62" data-name="Ellipse 62" cx="41.106" cy="20.966" rx="41.106" ry="20.966" transform="translate(659.778 947.219) rotate(-17.277)" fill="#c8e6eb"/>
    <g id="Group_470" data-name="Group 470" transform="translate(385.713 777.317)">
      <path id="Path_720" data-name="Path 720" d="M646.606,1384.042c9.782,4.015,10.2,27.363,12.377,30.338,3.412,4.672,17.243,22.419,18.924,25.275s-4.7,7.449-6.721,5.405c-1.6-1.627-15.263-15.345-20.781-20.885a8.35,8.35,0,0,1-2.427-5.564Z" transform="translate(-600.256 -1355.484)" fill="#9ebbdb"/>
      <g id="Group_468" data-name="Group 468" transform="translate(0 0)">
        <path id="Path_721" data-name="Path 721" d="M551.03,1685.289s1.32-49.985,1.32-55.307-5.6-41.009-.472-57.362l38.9,3.612s.761,16.5.762,17.744c0,1.935-5.891,53.388-5.141,78.39l-15.231,1.44s-.281-33.145,2.679-46.059c.147-7.778-.454-25.279-.454-25.279s-5.136,23.436-5.682,28.894-3.941,54.906-3.941,54.906A124.515,124.515,0,0,0,551.03,1685.289Z" transform="translate(-541.01 -1470.794)" fill="#073669"/>
        <path id="Path_722" data-name="Path 722" d="M527.633,1418.738s-1.791-6.386,3.041-16.574c2.769-5.838,10.635-10.729,20.1-15.33,18.043-8.774,25.088-6.544,27.477,1.976,1.113,3.968,2.124,19.029.958,27.355-1.909,13.631-2.7,36.2-1.524,44.729.234,1.7-4.877,5.957-15.494,8.278-7.7,1.682-25.222,1.089-26.942-6.035l1.008-41.432Z" transform="translate(-527.309 -1353.771)" fill="#c7daf2"/>
        <path id="Path_723" data-name="Path 723" d="M603.874,1394.053c0,2.9-3.7,5.254-8.255,5.254s-8.255-2.353-8.255-5.254,3.7-5.254,8.255-5.254S603.874,1391.151,603.874,1394.053Z" transform="translate(-564.031 -1358.392)" fill="#fcae6e"/>
        <path id="Rectangle_283" data-name="Rectangle 283" d="M0,0H14.674a0,0,0,0,1,0,0V14.938a.852.852,0,0,1-.852.852H1.639A1.639,1.639,0,0,1,0,14.15V0A0,0,0,0,1,0,0Z" transform="translate(24.606 22.127)" fill="#fcae6e"/>
        <path id="Path_724" data-name="Path 724" d="M594.765,1367.489a15.408,15.408,0,0,0,10.327,14.857h0a2.076,2.076,0,0,0,2.744-1.966v-12.891Z" transform="translate(-568.557 -1345.362)" fill="#f29955"/>
        <path id="Path_725" data-name="Path 725" d="M610.749,1327.011c-.645,9.728-2.484,17.323-7.473,17.323-7.4,0-12.635-7.779-12.635-17.529s.425-15.066,7.828-15.066S611.382,1317.459,610.749,1327.011Z" transform="translate(-566.034 -1311.272)" fill="#fcae6e"/>
        <path id="Path_726" data-name="Path 726" d="M583.778,1339.623a56.083,56.083,0,0,1,1.09-11.283c.717-3.694,1.265-5,4.434-5.706.937-.209,8.22,2.077,10.006,1.86,2.3-.279,4.093-4.469,4.567-1.271,0,0,1.3-2.2-.313-7.68-1.338-4.539-21.413-10.953-23.905,6.431C578.391,1330.8,582.5,1334.979,583.778,1339.623Z" transform="translate(-559.172 -1310.537)" fill="#111b33"/>
        <path id="Path_727" data-name="Path 727" d="M590.464,1354.369c0,2.388.11,4.768-1.754,4.768s-4.212-3-4.212-5.39.727-3.7,2.591-3.7S590.464,1351.98,590.464,1354.369Z" transform="translate(-562.279 -1334.695)" fill="#fcae6e"/>
        <path id="Path_728" data-name="Path 728" d="M639.586,1560.26l-.185,0c-4.523-.125-5.284-5.721-.847-6.607a26.822,26.822,0,0,0,5.257-1.235l2.358-3.612c.511-.784,3.17-3.363,3.939-2.83.624.432-1.28,3.388-1.543,4.1,0,0-2,3.368.5,2.161,2.162-1.043,7.582-10.049,7.284-3.371C656.015,1556.345,645.8,1560.32,639.586,1560.26Z" transform="translate(-593.52 -1454.456)" fill="#fcae6e"/>
        <path id="Path_729" data-name="Path 729" d="M527.637,1466.471s1.856,30.44,2.471,33.392,10.429,18.332,43.18,12.944c0,0,1.124-5.869.571-9.761-6.422-.389-26.184-.349-30.609-7.17-1.5-2.318-1.987-16.341-1.987-16.341a11.81,11.81,0,0,0-13.625-13.064Z" transform="translate(-527.509 -1405.791)" fill="#9ebbdb"/>
      </g>
      <path id="Path_730" data-name="Path 730" d="M605.254,1830.077s.119,5.951,0,7.5,14.172,10.45,20.6,11.521a7.153,7.153,0,0,0,7-2.208,3.051,3.051,0,0,0-.472-4.34,80.444,80.444,0,0,1-12.97-13.143Z" transform="translate(-574.97 -1627.813)" fill="#111b33"/>
      <path id="Path_731" data-name="Path 731" d="M553.724,1862.015s-1.45,7.458-1.178,9.244,1.416,13.21,11.175,12.734,3.332-12.258,2.737-13.805-1.9-8.172-1.9-8.172Z" transform="translate(-542.72 -1647.754)" fill="#111b33"/>
      <path id="Path_732" data-name="Path 732" d="M628.03,1382.876a2.278,2.278,0,0,1,.661-2.333c.573-.558,1.671-.867,2.029-.151s-.521,2.292-1.013,2.614S628.113,1383.314,628.03,1382.876Z" transform="translate(-588.848 -1352.996)" fill="#fcae6e"/>
      <g id="Group_469" data-name="Group 469" transform="translate(55.044 76.616)">
        <path id="Path_733" data-name="Path 733" d="M674.611,1529.886l9.009-.938L697,1513.913l-9.009.938Z" transform="translate(-672.425 -1511.513)" fill="url(#linear-gradient-4)"/>
        <path id="Path_734" data-name="Path 734" d="M671.17,1527.584l-2.187-2.4,13.381-15.034,2.187,2.4Z" transform="translate(-668.983 -1509.212)" fill="#1b2851"/>
        <path id="Path_735" data-name="Path 735" d="M714.62,1510.136l-2.186-2.4-9.009.938,2.187,2.4Z" transform="translate(-690.044 -1507.736)" fill="#1b2851"/>
      </g>
      <path id="Path_736" data-name="Path 736" d="M704.259,1518.484c-1.212,1.362-2.66,1.619-5.166,1.936-2.62.331-5.19.307-5.615,1.438-.483,1.283,2.113,1.272,2.113,1.272s4.086-.014,3.886.358-3.83.848-5.083.906c-2.266.1-3.226.037-3.328,1.114-.154,1.61,6.062.5,5.952,1.112s-4.989,1.143-5.39,1.419-.043.829,1.8,1.136c1.782.3,5.981.165,7.892-1.06,4.163-2.667,6.549-7.387,5.744-9.631l-.8-2.245Z" transform="translate(-627.441 -1436.32)" fill="#fcae6e"/>
      <path id="Path_737" data-name="Path 737" d="M597.879,1355.027h0c-1.091-3.718-3.043-9.684,0-12.671h-3.114v9.558A3.114,3.114,0,0,0,597.879,1355.027Z" transform="translate(-568.557 -1329.994)" fill="#111b33"/>
    </g>
    <g id="Group_471" data-name="Group 471" transform="translate(621.974 728.231)">
      <path id="Path_738" data-name="Path 738" d="M1153.168,1236.949s-.4-3.731-.718-4.956-1-6.065-2.283-7.657-1.288,2.332-1.642,3.434-2.056,1.717-3.344.109-2.575-5.875-3.741-7.944-6.658,5.08-5.969,8.919a15.126,15.126,0,0,0,5.121,9.269c2.77,2.43,6.129,3.044,7.194,4.262Z" transform="translate(-1135.411 -1205.823)" fill="#fcae6e"/>
      <path id="Path_739" data-name="Path 739" d="M1337.405,1743.144s.509,1.517-6.034,1.874-13.5.357-14.391,4.638,5.138,9.3,12.275,10.281c6.146.844,16.759.207,22.753-.983,1-.2,1.862-.664,2-1.677a22.426,22.426,0,0,0-.853-9.9C1351.237,1741.606,1337.405,1743.144,1337.405,1743.144Z" transform="translate(-1246.383 -1525.866)" fill="#111b33"/>
      <path id="Path_740" data-name="Path 740" d="M1291.345,1755.885s.509,1.515-6.034,1.872-13.5.357-14.391,4.639,4.192,7.671,11.327,8.652c6.149.846,18.451,1.425,23.34,1.627a1.907,1.907,0,0,0,2-1.677,49.5,49.5,0,0,0,.349-9.849C1307.49,1755.082,1291.345,1755.885,1291.345,1755.885Z" transform="translate(-1218.21 -1533.749)" fill="#111b33"/>
      <path id="Path_741" data-name="Path 741" d="M1373.388,1483.075s.709,52.6,1.183,58.994,1.9,45.172,1.9,45.172-10.99,5.535-19.519,1.742L1352.065,1489Z" transform="translate(-1267.89 -1366.953)" fill="#033f75"/>
      <path id="Path_742" data-name="Path 742" d="M1330.145,1488.256v52.676c.474,15.4,1.343,55.8,1.343,55.8a28.378,28.378,0,0,1-20.533-5.412c.711-6.87,0-45.726,0-45.726-2.573-20.16-4.113-52.553-4.379-58.51-.03-.623-.043-.956-.043-.956Z" transform="translate(-1240.048 -1368.818)" fill="#073669"/>
      <path id="Path_743" data-name="Path 743" d="M1414.528,1291.9s8.055,25.074,6.316,38.341a70.829,70.829,0,0,1-13.9,9Z" transform="translate(-1301.449 -1250.056)" fill="#9ebbdb"/>
      <path id="Path_744" data-name="Path 744" d="M1313.727,1204.693c.025,9.65,6.391,17.456,14.219,17.436s14.154-7.861,14.131-17.511-6.393-17.455-14.221-17.435S1313.7,1195.043,1313.727,1204.693Z" transform="translate(-1244.447 -1186.022)" fill="#fcae6e"/>
      <path id="Path_745" data-name="Path 745" d="M1322.985,1266.99s-10.229-.7-18.256,4.912a6.123,6.123,0,0,1-2.2,2.758c-1.6,1.07-13.48,5.586-13.48,5.586s7.424,50.069,3.4,72.813c0,0,17.3,13.5,44.3,0,0,0,3.948-62.033,5.687-76.407C1342.437,1276.652,1337.935,1271.085,1322.985,1266.99Z" transform="translate(-1229.358 -1234.806)" fill="#c7daf2"/>
      <path id="Path_746" data-name="Path 746" d="M1209.077,1273.878l-20.173,4.638-21.547-21.967s-7.564,2.335-9.093,8.809l25.7,29.246,31.607-2.759S1223.133,1276.091,1209.077,1273.878Z" transform="translate(-1149.384 -1228.438)" fill="#9ebbdb"/>
      <path id="Path_747" data-name="Path 747" d="M1318.2,1184.571s-15.471,3.167-11.179,11.416c2.5,4.815,17.314,6.428,17.314,6.428s-7.845,4.3-2.053,6.305c0,0,.921,7.631,11.424,6.965,0,0,15.8-20.582-3.5-30.33A25.552,25.552,0,0,0,1318.2,1184.571Z" transform="translate(-1239.886 -1184.195)" fill="#111b33"/>
    </g>
    <g id="Group_472" data-name="Group 472" transform="translate(468.296 472.823)">
      <path id="Path_748" data-name="Path 748" d="M756.909,533.4c.787,5.758-2.376,12.618-7.059,15.321-4.658,2.693-9.065.2-9.872-5.544-.754-5.733,2.38-12.577,7.042-15.262C751.7,525.2,756.131,527.681,756.909,533.4Zm-7.565,11.614c3.043-1.755,5.057-6.137,4.579-9.884-.531-3.69-3.36-5.263-6.4-3.55-2.986,1.763-5.033,6.153-4.526,9.86.506,3.74,3.361,5.3,6.351,3.575" transform="translate(-739.867 -526.812)" fill="url(#linear-gradient-4)"/>
    </g>
    <g id="Group_474" data-name="Group 474" transform="translate(328.079 596.47)">
      <g id="Group_473" data-name="Group 473">
        <path id="Path_749" data-name="Path 749" d="M396.011,851.648c.786,5.757-2.377,12.618-7.059,15.32-4.658,2.693-9.064.2-9.872-5.543-.754-5.733,2.38-12.578,7.042-15.263C390.8,843.452,395.233,845.932,396.011,851.648Zm-7.565,11.614c3.043-1.755,5.057-6.137,4.579-9.884-.531-3.69-3.361-5.263-6.4-3.55-2.986,1.763-5.033,6.153-4.526,9.859.507,3.739,3.361,5.3,6.351,3.575" transform="translate(-378.969 -845.063)" fill="#073669"/>
      </g>
    </g>
    <g id="Group_475" data-name="Group 475" transform="translate(701.048 456.565)">
      <path id="Path_750" data-name="Path 750" d="M1355.978,491.553c.786,5.758-2.377,12.618-7.059,15.32-4.658,2.693-9.064.2-9.872-5.543-.754-5.733,2.38-12.578,7.042-15.263C1350.767,483.357,1355.2,485.837,1355.978,491.553Zm-7.565,11.614c3.043-1.755,5.057-6.136,4.58-9.884-.531-3.69-3.361-5.263-6.4-3.55-2.986,1.763-5.033,6.153-4.526,9.86.506,3.74,3.361,5.3,6.351,3.575" transform="translate(-1338.935 -484.968)" fill="none" stroke="#707070" stroke-width="4"/>
    </g>
    <g id="Group_476" data-name="Group 476" transform="translate(383.783 539.113)">
      <path id="Path_751" data-name="Path 751" d="M533.707,710.074a6.351,6.351,0,0,0-2.392,2.558,24.423,24.423,0,0,1-1.346,2.408,4.114,4.114,0,0,1-1.307,1.169,2.185,2.185,0,0,1-1.984.281,6.927,6.927,0,0,0-1.933-.657,3.386,3.386,0,0,0-1.948.54,1.056,1.056,0,0,0-.448.971c.051.373.336.532.631.362a2.163,2.163,0,0,1,1.984-.278,7.171,7.171,0,0,0,1.933.657,3.308,3.308,0,0,0,1.891-.511,6.461,6.461,0,0,0,2.449-2.591,23.825,23.825,0,0,1,1.337-2.4,4.181,4.181,0,0,1,1.315-1.174,2.158,2.158,0,0,1,1.975-.272,7.4,7.4,0,0,0,1.924.663,3.332,3.332,0,0,0,1.891-.511,6.453,6.453,0,0,0,2.447-2.591,26.346,26.346,0,0,1,1.337-2.405,4.239,4.239,0,0,1,1.316-1.174,2.145,2.145,0,0,1,1.966-.266,7.707,7.707,0,0,0,1.933.657,3.279,3.279,0,0,0,1.89-.511,6.41,6.41,0,0,0,2.449-2.591,25.977,25.977,0,0,1,1.337-2.4,4.2,4.2,0,0,1,1.307-1.168,1.052,1.052,0,0,0,.454-.989.406.406,0,0,0-.636-.344,6.312,6.312,0,0,0-2.381,2.555,24.163,24.163,0,0,1-1.348,2.408,4.141,4.141,0,0,1-1.306,1.168,2.168,2.168,0,0,1-1.975.272,7.026,7.026,0,0,0-1.934-.657,3.383,3.383,0,0,0-1.939.538,6.327,6.327,0,0,0-2.391,2.558,24.093,24.093,0,0,1-1.347,2.408,4.1,4.1,0,0,1-1.306,1.168,2.149,2.149,0,0,1-1.975.272,7.128,7.128,0,0,0-1.933-.657A3.4,3.4,0,0,0,533.707,710.074Z" transform="translate(-522.341 -697.433)" fill="url(#linear-gradient-4)"/>
    </g>
    <g id="Group_478" data-name="Group 478" transform="translate(540.251 438.518)">
      <g id="Group_477" data-name="Group 477" transform="translate(0)">
        <path id="Path_752" data-name="Path 752" d="M951.414,467.82a14.722,14.722,0,0,0-5.544,5.929,56.619,56.619,0,0,1-3.12,5.582,9.529,9.529,0,0,1-3.03,2.708,5.062,5.062,0,0,1-4.6.651c-1.281-.436-2.577-1.365-4.481-1.524a7.849,7.849,0,0,0-4.515,1.254,2.444,2.444,0,0,0-1.039,2.251c.118.866.779,1.233,1.462.838,2.1-1.191,3.3-1.06,4.6-.644,1.277.429,2.58,1.357,4.481,1.524a7.663,7.663,0,0,0,4.384-1.184,14.976,14.976,0,0,0,5.676-6.005,54.987,54.987,0,0,1,3.1-5.568,9.674,9.674,0,0,1,3.048-2.722,5,5,0,0,1,4.578-.63c1.281.429,2.576,1.357,4.46,1.537a7.722,7.722,0,0,0,4.384-1.184,14.952,14.952,0,0,0,5.672-6.005,61.35,61.35,0,0,1,3.1-5.576,9.816,9.816,0,0,1,3.051-2.722,4.97,4.97,0,0,1,4.557-.617c1.3.416,2.6,1.351,4.481,1.524a7.6,7.6,0,0,0,4.381-1.184,14.854,14.854,0,0,0,5.676-6,60.069,60.069,0,0,1,3.1-5.569,9.714,9.714,0,0,1,3.03-2.708,2.44,2.44,0,0,0,1.052-2.293.942.942,0,0,0-1.475-.8,14.641,14.641,0,0,0-5.52,5.922,55.915,55.915,0,0,1-3.124,5.582,9.588,9.588,0,0,1-3.027,2.708,5.022,5.022,0,0,1-4.578.63c-1.278-.429-2.577-1.364-4.481-1.523a7.845,7.845,0,0,0-4.495,1.246,14.654,14.654,0,0,0-5.541,5.929,55.926,55.926,0,0,1-3.124,5.582,9.5,9.5,0,0,1-3.027,2.708,4.981,4.981,0,0,1-4.578.63c-1.278-.43-2.577-1.357-4.481-1.524A7.887,7.887,0,0,0,951.414,467.82Z" transform="translate(-925.068 -438.518)" fill="#073669"/>
      </g>
    </g>
  </g>
</svg>
