<svg xmlns="http://www.w3.org/2000/svg" width="17.159" height="30.56" viewBox="0 0 17.159 30.56">
  <g id="Group_651" data-name="Group 651" transform="translate(-2427.872 -2475.41)">
    <path id="Path_1461" data-name="Path 1461" d="M2429.37,2919.216a3.86,3.86,0,0,1-.681-.324,1.76,1.76,0,0,1-.81-1.452c0-.725.01-1.451-.007-2.176-.006-.267.1-.352.371-.343.329.012.66,0,.99,0h15.234c.557,0,.558,0,.558.53s-.014,1.034,0,1.55a2.029,2.029,0,0,1-1.535,2.211Zm7.029-1.315c.533,0,1.065.009,1.6,0a.837.837,0,0,0,.889-.859.86.86,0,0,0-.91-.85q-1.533-.012-3.067,0a.857.857,0,1,0-.011,1.709C2435.4,2917.909,2435.9,2917.9,2436.4,2917.9Z" transform="translate(0 -413.246)" fill="#d3483d"/>
    <path id="Path_1462" data-name="Path 1462" d="M2427.962,2585.608q0-4.412,0-8.824c0-.424,0-.425.463-.425h16.194c.488,0,.491,0,.491.473q0,8.794,0,17.588c0,.446-.01.455-.477.455h-16.194c-.476,0-.476,0-.477-.443Q2427.962,2590.02,2427.962,2585.608Z" transform="translate(-0.085 -94.916)" fill="#d3483d"/>
    <path id="Path_1463" data-name="Path 1463" d="M2436.491,2479.723h-8.048c-.5,0-.5,0-.5-.479,0-.675,0-1.351,0-2.027a1.88,1.88,0,0,1,1.932-1.8q6.627-.007,13.253,0a1.906,1.906,0,0,1,1.951,1.923c.034.694,0,1.391.012,2.086,0,.3-.2.3-.423.3q-2.715,0-5.429,0Z" transform="translate(-0.062)" fill="#d3483d"/>
  </g>
</svg>
