<svg xmlns="http://www.w3.org/2000/svg" width="22.196" height="29.555" viewBox="0 0 22.196 29.555">
  <g id="Group_652" data-name="Group 652" transform="translate(-2949.211 -2892.304)">
    <path id="Path_1464" data-name="Path 1464" d="M2959.444,2892.3h1.73c.226.043.453.082.678.13a7.412,7.412,0,0,1,5.866,7.3c-.021,1.1,0,2.191-.007,3.287,0,.251.083.352.334.333.2-.014.4,0,.605,0a2.759,2.759,0,0,1,2.753,2.753q.007,6.5,0,13a2.751,2.751,0,0,1-2.733,2.743q-8.361.007-16.723,0a2.753,2.753,0,0,1-2.734-2.742q-.007-6.5,0-13a2.774,2.774,0,0,1,1.987-2.645,4.112,4.112,0,0,1,1.344-.1c.279.008.368-.086.365-.365-.013-1.1-.017-2.21,0-3.315a7.261,7.261,0,0,1,3.446-6.26A7.589,7.589,0,0,1,2959.444,2892.3Zm.867,11.052h4.5c.377,0,.384-.007.384-.393,0-1.086,0-2.172,0-3.258a4.884,4.884,0,0,0-9.767-.083c-.006,1.115,0,2.23,0,3.345,0,.38.009.388.388.389Zm.006,5c-.115,0-.23,0-.345,0a.845.845,0,0,0-.17.03,2.333,2.333,0,0,0-1.856,1.873,2.287,2.287,0,0,0,.912,2.417.588.588,0,0,1,.261.53c-.011.8-.006,1.594,0,2.391a1.195,1.195,0,1,0,2.385-.013c0-.778.011-1.556,0-2.333a.659.659,0,0,1,.3-.6,2.394,2.394,0,0,0-1.475-4.3Z" fill="#d3483d"/>
  </g>
</svg>
